<svg xmlns="http://www.w3.org/2000/svg" xmlns:xlink="http://www.w3.org/1999/xlink" width="148" height="86" viewBox="0 0 148 86">
  <defs>
    <clipPath id="clip-path">
      <rect id="Rechteck_2874" data-name="Rechteck 2874" width="148" height="86" transform="translate(-33.305)" fill="none"/>
    </clipPath>
    <clipPath id="clip-path-2">
      <rect id="Rechteck_2876" data-name="Rechteck 2876" width="147.744" height="89.355" fill="#fff"/>
    </clipPath>
  </defs>
  <g id="dogs_and_sports_logo" transform="translate(33.305)" clip-path="url(#clip-path)">
    <g id="Gruppe_6251" data-name="Gruppe 6251" transform="translate(-33.049 -3.355)">
      <g id="Gruppe_6250" data-name="Gruppe 6250" clip-path="url(#clip-path-2)">
        <path id="Pfad_3787" data-name="Pfad 3787" d="M143.249,541.422c1.44.641,2.052,1.136,2.052,2.016,0,.83-.72,1.308-1.893,1.308a4.867,4.867,0,0,1-2.68-.838l-.736,1.982a6.885,6.885,0,0,0,3.516.974c2.765,0,4.237-1.417,4.237-3.622,0-1.795-.979-2.855-3.031-3.811-1.592-.744-2.026-1.146-2.026-1.812,0-.615.5-1.008,1.557-1.008a4,4,0,0,1,2.178.666l.736-1.947a6.24,6.24,0,0,0-3.148-.837c-2.429,0-3.768,1.315-3.768,3.246,0,1.546.678,2.649,3.006,3.683m-12.233,5.238h2.41v-9.878h3.132V534.7h-8.673v2.083h3.132Zm-12.9-9.912h1.574a2.031,2.031,0,0,1,2.228,2.188c0,1.452-.9,2.187-2.563,2.187h-1.24Zm6.247,2.137c0-2.342-1.742-4.187-4.622-4.187h-4.035V546.66h2.41v-3.624l3.434,3.624h3.064l-3.718-3.726a4.073,4.073,0,0,0,3.466-4.049m-22.876,1.794a3.842,3.842,0,1,1,3.836,4.068,3.851,3.851,0,0,1-3.836-4.068m-2.445,0a6.281,6.281,0,1,0,6.28-6.186,6.075,6.075,0,0,0-6.28,6.186M93.5,539.124a2.2,2.2,0,0,1-2.463,2.375H89.8v-4.75h1.24a2.2,2.2,0,0,1,2.463,2.376m-2.261,4.425a4.434,4.434,0,1,0,0-8.851H87.389V546.66H89.8v-3.111Zm-12.369-2.127c1.442.641,2.052,1.136,2.052,2.016,0,.83-.72,1.308-1.892,1.308a4.867,4.867,0,0,1-2.68-.838l-.736,1.982a6.885,6.885,0,0,0,3.516.974c2.764,0,4.237-1.417,4.237-3.622,0-1.795-.979-2.855-3.031-3.811-1.592-.744-2.027-1.146-2.027-1.812,0-.615.5-1.008,1.558-1.008a4,4,0,0,1,2.178.666l.736-1.947a6.243,6.243,0,0,0-3.148-.837c-2.429,0-3.768,1.315-3.768,3.246,0,1.546.677,2.649,3,3.683M63.119,545c-1.222,0-2.009-.6-2.009-1.316a1.823,1.823,0,0,1,1.155-1.589l2.781,2.444a3.834,3.834,0,0,1-1.926.462m-1.407-7.212A1.355,1.355,0,0,1,63.07,536.3c.87,0,1.423.529,1.423,1.589a2.56,2.56,0,0,1-1.357,2.188l-.05-.051a3.038,3.038,0,0,1-1.374-2.239m5.058.1c0-2.016-1.439-3.4-3.7-3.4a3.371,3.371,0,0,0-3.651,3.331A4.169,4.169,0,0,0,61.026,541c-1.491.6-2.328,1.521-2.328,2.855,0,1.966,2.042,2.99,4.387,2.99a6.1,6.1,0,0,0,3.466-.974l1.423,1.231,1.525-1.52-1.442-1.248a6.44,6.44,0,0,0,.955-2.734l-2.16-.377a5.521,5.521,0,0,1-.419,1.71l-2.009-1.743a3.763,3.763,0,0,0,2.344-3.3m-19.853,3.529c1.44.641,2.052,1.136,2.052,2.016,0,.83-.72,1.308-1.893,1.308a4.867,4.867,0,0,1-2.68-.838l-.736,1.982a6.886,6.886,0,0,0,3.517.974c2.764,0,4.236-1.417,4.236-3.622,0-1.795-.979-2.855-3.031-3.811-1.59-.744-2.026-1.146-2.026-1.812,0-.615.5-1.008,1.557-1.008a4,4,0,0,1,2.178.666l.736-1.947a6.239,6.239,0,0,0-3.148-.837c-2.429,0-3.768,1.315-3.768,3.246,0,1.546.678,2.649,3.006,3.683M39.254,535.3a7.28,7.28,0,0,0-3.516-.8,6.051,6.051,0,0,0-6.364,6.186c0,3.675,2.729,6.186,6.5,6.186a9.155,9.155,0,0,0,3.934-.768v-5.622H35.019v2.084H37.4v2.018a4.686,4.686,0,0,1-1.44.188,3.951,3.951,0,0,1-4.139-4.086,3.782,3.782,0,0,1,3.87-4.067,5.972,5.972,0,0,1,2.83.632Zm-23.262,5.383a3.842,3.842,0,1,1,3.836,4.068,3.851,3.851,0,0,1-3.836-4.068m-2.445,0a6.075,6.075,0,0,0,6.28,6.186,6.186,6.186,0,1,0,0-12.371,6.076,6.076,0,0,0-6.28,6.186m-3.266,0c0-3.794-2.562-5.98-6.364-5.98H0V546.66H3.918c3.8,0,6.364-2.17,6.364-5.981m-2.445.017a3.62,3.62,0,0,1-3.9,3.88H2.41v-7.795H3.935a3.63,3.63,0,0,1,3.9,3.914" transform="translate(0 -469.522)" fill="#fff"/>
        <path id="Pfad_3788" data-name="Pfad 3788" d="M251.932,699.253h.984v-3.007l2.276,3.007h.725v-4.783h-.985v3l-2.276-3h-.724Zm-5.8-2.392a1.566,1.566,0,1,1,1.566,1.628,1.555,1.555,0,0,1-1.566-1.628m-1,0a2.565,2.565,0,1,0,2.564-2.474,2.457,2.457,0,0,0-2.564,2.474m-2.692,2.392h.984v-4.785h-.984Zm-3.511-2.094c.588.256.837.454.837.806,0,.331-.293.523-.772.523a2.021,2.021,0,0,1-1.094-.335l-.3.793a2.871,2.871,0,0,0,1.435.389c1.128,0,1.729-.568,1.729-1.449,0-.718-.4-1.141-1.237-1.524-.65-.3-.827-.459-.827-.725,0-.246.2-.4.635-.4a1.645,1.645,0,0,1,.889.267l.3-.779a2.592,2.592,0,0,0-1.285-.335c-.992,0-1.539.526-1.539,1.3,0,.618.277,1.06,1.227,1.474m-4.532,0c.588.256.838.454.838.806,0,.331-.294.523-.773.523a2.014,2.014,0,0,1-1.093-.335l-.3.793a2.871,2.871,0,0,0,1.435.389c1.129,0,1.729-.568,1.729-1.449,0-.718-.4-1.141-1.237-1.524-.649-.3-.827-.459-.827-.725,0-.246.206-.4.636-.4a1.652,1.652,0,0,1,.889.267l.3-.779a2.591,2.591,0,0,0-1.285-.335c-.991,0-1.537.526-1.537,1.3,0,.618.277,1.06,1.226,1.474m-4.856-1.3.718,1.86h-1.435Zm1.306,3.39h1.025l-1.935-4.783h-.793l-1.935,4.783h1.025l.273-.71h2.064Zm-5.456-3.013a.89.89,0,0,1-1,.95h-.506v-1.9h.506a.89.89,0,0,1,1,.95m-.923,1.77a1.776,1.776,0,1,0,0-3.54h-1.572v4.783h.985V698.01Zm-8.188-2.72h.643a.821.821,0,0,1,.91.875c0,.581-.369.874-1.046.874h-.506Zm2.549.854a1.7,1.7,0,0,0-1.886-1.674h-1.647v4.783h.984V697.8l1.4,1.449h1.249l-1.517-1.489a1.64,1.64,0,0,0,1.414-1.62m-7.559,3.192a1.906,1.906,0,0,0,2.009-2.1v-2.761h-.984v2.823c0,.841-.492,1.2-1.025,1.2s-1.025-.356-1.025-1.2v-2.823h-.985v2.761a1.906,1.906,0,0,0,2.01,2.1m-7.814-2.474a1.567,1.567,0,1,1,1.566,1.628,1.556,1.556,0,0,1-1.566-1.628m-1,0a2.564,2.564,0,1,0,2.563-2.474,2.457,2.457,0,0,0-2.563,2.474m-4.019-2.153a3.022,3.022,0,0,0-1.435-.321,2.479,2.479,0,1,0,.054,4.949,3.811,3.811,0,0,0,1.606-.308v-2.249h-1.955v.835h.97v.806a1.92,1.92,0,0,1-.587.075,1.6,1.6,0,0,1-1.689-1.634,1.528,1.528,0,0,1,1.579-1.627,2.481,2.481,0,0,1,1.155.254Zm-9.693,4.545h.984v-3.007L192,699.253h.725v-4.783h-.984v3l-2.277-3h-.724Zm-3.036,0h.983v-4.785h-.983Zm-4.579,0h2.9v-.833h-1.92v-3.95h-.984Zm-3.035,0h.983v-4.785h-.983Zm-3.835-3.39.718,1.86h-1.435Zm1.3,3.39h1.025l-1.934-4.783h-.793l-1.935,4.783h1.025l.273-.71h2.064Zm-7.417-3.964h.643a.821.821,0,0,1,.91.875c0,.581-.369.874-1.046.874h-.506Zm2.551.854a1.7,1.7,0,0,0-1.887-1.674h-1.647v4.783h.983V697.8l1.4,1.449H170.8l-1.518-1.489a1.641,1.641,0,0,0,1.416-1.62m-7.472,3.109h.985V695.3h1.278v-.833h-3.54v.833h1.278Zm-6.938,0h.984v-3.007l2.277,3.007h.724v-4.783h-.983v3l-2.276-3h-.725Zm-3.8-3.39.719,1.86H151.77Zm1.306,3.39h1.025l-1.934-4.783h-.794l-1.934,4.783h1.025l.273-.71h2.064Zm-7.43-1.216,1.244-1.859.2,3.075h1.012l-.383-4.783h-.724l-1.6,2.4-1.6-2.4h-.725l-.383,4.783h1.012l.2-3.075,1.244,1.859Z" transform="translate(-125.978 -609.98)" fill="#fff"/>
        <path id="Pfad_3789" data-name="Pfad 3789" d="M350.013,77.464c.3-.266.619-.506.942-.748L353.8,65.411a.9.9,0,0,1,.094-.224c-.58-.1-3.2-.533-4.027-.692l-5.86-1.013c-1.232-.177-2.406-.314-3.456-.393-6.85-.506-9.673,2.092-10.789,2.2s-9.63-1.933-10.929-7.807a8.5,8.5,0,0,1,.236-4.542,6.906,6.906,0,0,1,1.1-2.246,9.455,9.455,0,0,1,2.152-2.3.186.186,0,0,0-.195-.314,9.275,9.275,0,0,0-3.592,2.859,12.682,12.682,0,0,0-1.023,1.955,7.989,7.989,0,0,0-.3,1.139v.022a10.285,10.285,0,0,0,0,3.569c1.181,7.262,11.015,9.487,11.015,9.487a8.44,8.44,0,0,0-1.658,3.418c-.23,1.67-.748,5.987-3.1,9.212a17.049,17.049,0,0,1-5.064,4.529,1.727,1.727,0,0,0-.7.76L314.4,92.021a1.916,1.916,0,0,0-.177.974l.209,2.558a1.266,1.266,0,0,0,1.266,1.164h1.625a.633.633,0,0,0,.222-1.218,1.44,1.44,0,0,1-.932-1.242,4.129,4.129,0,0,1,.106-1.541c.176-.457,1.252-2.337,2.065-3.734a6.837,6.837,0,0,1,2.5-2.492c1.8-1.036,4.764-2.708,6.119-3.47a5.835,5.835,0,0,0,1.29-.985l2.95-2.984c-1.519-2.126-3.52-4.033-4.076-6.653a11.551,11.551,0,0,0,2.809,4.055c.663.626,2.854,2.606,2.888,2.641a16.171,16.171,0,0,1,2.525,3.211,2.8,2.8,0,0,1,.137,2.342l-1.878,4.762a1.209,1.209,0,0,0,.285,1.314l5.739,5.539a1.652,1.652,0,0,0,1.15.463H343.5a.759.759,0,0,0,.661-1.139,1.805,1.805,0,0,0-1.565-.905h-.67a.76.76,0,0,1-.575-.262l-1.909-2.2a4.282,4.282,0,0,1-.682-4.534l2.6-5.9a11.286,11.286,0,0,0,.475-2.62,33.1,33.1,0,0,0-3.017-8.445,30.024,30.024,0,0,1,2.49,3.9h.006a52.637,52.637,0,0,1,7.821,4.938l.322-.994a2.63,2.63,0,0,1,.542-1.086" transform="translate(-276.021 -42.219)" fill="#fff"/>
        <path id="Pfad_3790" data-name="Pfad 3790" d="M366.691,83.227l23.365,8.618,6.34,1.094L367.148,82.15a5.328,5.328,0,0,0-.453,1.077" transform="translate(-322.118 -72.164)" fill="#fff"/>
        <path id="Pfad_3791" data-name="Pfad 3791" d="M165.742,8.446,142.955.037a.584.584,0,0,0-.406,1.1l22.64,8.356c.175-.37.365-.723.55-1.042" transform="translate(-124.886 0)" fill="#fff"/>
        <path id="Pfad_3792" data-name="Pfad 3792" d="M745.7,231.865a1,1,0,0,0-.208-.317l-.294-.3-1.932-1.976a1.921,1.921,0,0,1-.429-2.006,2.038,2.038,0,0,0-.3-1.965,12.916,12.916,0,0,0-1.013-1.128,22.962,22.962,0,0,0-4.658-2.912c-1.026-.641-2.454-3-5.045-5.282-1.955-1.722-4.261-4.6-6.837-6.077-.08-.022-.167-.051-.253-.084a.685.685,0,0,0-.875.867l4.42,13.041a.679.679,0,0,1,.03.292c1.217.094,2.752,1.414,4.19,2.941a15.88,15.88,0,0,1,.253-2.116c.267,1.379.887,6.818,2.279,7.046,1.175-.237,1.974-4.79,2.3-5.977.039-.176.153-.666.191-.839a2.5,2.5,0,0,1,.938-1.217,3.144,3.144,0,0,0-.437,1.266c.025.68,0,1.36-.033,2.04a13.43,13.43,0,0,1-1.079,4.733,28.969,28.969,0,0,0,3.991,2.051,3.954,3.954,0,0,0,4-.476l.02-.018a3.957,3.957,0,0,0,.38-.33l.1-.1.157-.141a.815.815,0,0,0,.149-1.03" transform="translate(-635.837 -184.28)" fill="#fff"/>
        <path id="Pfad_3793" data-name="Pfad 3793" d="M682.275,370.341a1.773,1.773,0,0,0,1.429.728h2.969a.671.671,0,0,0,.658-.8,2.085,2.085,0,0,0-1.48-1.6l-1.452-.408a1.429,1.429,0,0,1-.892-.739l-3.558-7.154-4.834.127Z" transform="translate(-593.051 -316.563)" fill="#fff"/>
        <path id="Pfad_3794" data-name="Pfad 3794" d="M577.175,221.7l.014-.054a2.973,2.973,0,0,1,3.022-2.119c2.6.452,5.646.366,7.672-1.552-1.933,2.3-5.235,2.608-8.051,2.473-.633.039-1.381,1.076-1.437,1.509l-.06.418c2.218.162,6.772.351,9.56-.523.944-.3,1.345-1.155,1.723-1.737L584.809,206.8l-5.615-1.678-1.851,7.659c.76-.428,1.519-.851,2.261-1.312-1.113.841-2.261,1.637-3.366,2.487-.552.422-1.1.85-1.618,1.3a2.1,2.1,0,0,0-.944,1.45l-.008.038-.391,2.413-.919,7.809a1.022,1.022,0,0,1-.605.817.919.919,0,0,0-.491,1.17.591.591,0,0,1-.177.669c-.506.418-1.5,1.234-2.131,1.79a1.559,1.559,0,0,0-.523,1.3l.048.6a1.452,1.452,0,0,0,.243.691,2.015,2.015,0,0,0,.625.525,1.46,1.46,0,0,0,.479.127l.653.048a.823.823,0,0,0,.884-.757q0-.031,0-.063v-.657a1.213,1.213,0,0,1,.311-.811l3.184-3.534a1.786,1.786,0,0,0,.38-.674l1.531-5.024Z" transform="translate(-499.329 -180.187)" fill="#fff"/>
      </g>
    </g>
  </g>
</svg>
