<svg id="insta" xmlns="http://www.w3.org/2000/svg" width="34" height="34" viewBox="0 0 34 34">
  <path id="Pfad_3047" data-name="Pfad 3047" d="M34.812,10a12.423,12.423,0,0,0-.79-4.125A8.711,8.711,0,0,0,29.045.9,12.461,12.461,0,0,0,24.92.106C23.1.02,22.522,0,17.9,0S12.71.02,10.9.1A12.431,12.431,0,0,0,6.771.89,8.3,8.3,0,0,0,3.755,2.856a8.371,8.371,0,0,0-1.96,3.009A12.454,12.454,0,0,0,1,9.989C.918,11.809.9,12.387.9,17s.02,5.194.1,7.007a12.422,12.422,0,0,0,.791,4.125A8.71,8.71,0,0,0,6.764,33.11a12.463,12.463,0,0,0,4.126.79c1.813.08,2.392.1,7.009.1s5.195-.02,7.009-.1a12.426,12.426,0,0,0,4.125-.79,8.7,8.7,0,0,0,4.976-4.975,12.463,12.463,0,0,0,.79-4.125c.08-1.813.1-2.391.1-7.007S34.891,11.809,34.812,10ZM31.749,23.878a9.316,9.316,0,0,1-.585,3.155,5.64,5.64,0,0,1-3.229,3.228,9.357,9.357,0,0,1-3.155.584c-1.794.08-2.332.1-6.869.1s-5.082-.02-6.869-.1a9.319,9.319,0,0,1-3.155-.584,5.234,5.234,0,0,1-1.953-1.269,5.287,5.287,0,0,1-1.269-1.953,9.351,9.351,0,0,1-.584-3.155c-.08-1.793-.1-2.331-.1-6.868s.02-5.081.1-6.868a9.311,9.311,0,0,1,.584-3.155A5.168,5.168,0,0,1,5.94,5.041,5.278,5.278,0,0,1,7.893,3.773a9.361,9.361,0,0,1,3.156-.585c1.794-.08,2.332-.1,6.869-.1s5.082.02,6.869.1a9.321,9.321,0,0,1,3.155.585A5.229,5.229,0,0,1,29.9,5.041a5.285,5.285,0,0,1,1.269,1.953,9.354,9.354,0,0,1,.585,3.155c.08,1.793.1,2.331.1,6.868S31.829,22.084,31.749,23.878Z" transform="translate(-0.898 0)" fill="#fff"/>
  <path id="Pfad_3048" data-name="Pfad 3048" d="M133.629,124.281a8.446,8.446,0,1,0,8.45,8.446A8.45,8.45,0,0,0,133.629,124.281Zm0,13.925a5.479,5.479,0,1,1,5.481-5.479A5.481,5.481,0,0,1,133.629,138.206Z" transform="translate(-116.621 -115.723)" fill="#fff"/>
  <path id="Pfad_3049" data-name="Pfad 3049" d="M366.481,90.556a2.11,2.11,0,1,1-2.11-2.11A2.11,2.11,0,0,1,366.481,90.556Z" transform="translate(-338.325 -82.587)" fill="#fff"/>
</svg>
